<?xml version="1.0" encoding="UTF-8"?>
<svg id="_レイヤー_1" data-name="レイヤー 1" xmlns="http://www.w3.org/2000/svg" width="500" height="100" viewBox="0 0 500 100">
  <rect x="80.992" y="-27.288" width="65.864" height="151.54" rx="7.829" ry="7.829" transform="translate(162.406 -65.442) rotate(90)" fill="#f7931e" stroke="#1b393a" stroke-miterlimit="10" stroke-width="5"/>
  <g>
    <path d="m234.881,83.947v-7.4c0-2.05-.9-2.95-3-2.95h-5.751v10.351h-15.251v-40.802h25.302c8.65,0,13.801,3.2,13.801,14.451v2.4c0,3.25-.95,5.8-2.7,7.7,2.05,1.55,2.8,4,2.8,7.5v8.75h-15.2Zm.25-24.701c0-1.95-.801-2.65-3-2.65h-6.001v5.4h6.001c2.25,0,3-1.05,3-2.3v-.45Z" fill="#1b393a" stroke-width="0"/>
    <path d="m286.631,72.146h-15.301c.1,1,.55,1.75,2.149,1.75h21.602v10.101h-25.852c-7.7,0-10.9-3.45-10.9-11.601v-9.501c0-4.6,2.9-9.3,10.051-9.3h17.7c6.551,0,9.801,3.5,9.801,8.951v1.6c0,5-2.1,8-9.25,8Zm-4.2-8.651c0-.6-.45-1.1-1.301-1.1h-7.7c-1.3,0-2.15.75-2.15,1.95v.45h9.851c.75,0,1.301-.3,1.301-1.05v-.25Z" fill="#1b393a" stroke-width="0"/>
    <path d="m322.029,66.946v2.4c0,1.35.2,1.6,1.801,1.6h13.751v13.051h-18.451c-8.301,0-11.251-3.9-11.251-9.851v-7.201h-6.251v-13.151h6.251v-5.7h14.15v5.7h16.251v13.151h-16.251Z" fill="#1b393a" stroke-width="0"/>
    <path d="m370.181,84.047h-16.201c-6.601,0-10.351-2.8-10.351-10.65v-19.551h14.351v14.901c0,1.2.55,2,1.65,2h4.9c1.05,0,1.65-.45,1.65-2v-14.901h14.4v19.551c0,6.85-3.851,10.65-10.4,10.65Z" fill="#1b393a" stroke-width="0"/>
    <path d="m405.279,67.096c-3.101,0-4.551,2.05-4.551,4.05v12.851h-14.351v-13.151c0-12,7.2-17.051,15.701-17.051h15.851v13.301h-12.65Z" fill="#1b393a" stroke-width="0"/>
    <path d="m447.329,83.997v-14.351c0-1.9-.95-2.55-2.7-2.55h-3.2c-1.85,0-2.95.95-2.95,2.55v14.351h-14.551v-19.301c0-6.65,3.75-10.901,10.501-10.901h16.351c6.751,0,11.201,4.25,11.201,10.901v19.301h-14.651Z" fill="#1b393a" stroke-width="0"/>
  </g>
  <g>
    <path d="m115.53,37.582h25.706c8.163,0,14.781,6.618,14.781,14.781s-6.618,14.781-14.781,14.781h-59.053" fill="none" stroke="#1b393a" stroke-linecap="round" stroke-miterlimit="10" stroke-width="7"/>
    <polyline points="107.023 45.344 95.514 37.582 107.023 29.819" fill="none" stroke="#1b393a" stroke-linecap="round" stroke-linejoin="round" stroke-width="7"/>
  </g>
</svg>