<?xml version="1.0" encoding="UTF-8"?>
<svg id="_レイヤー_1" data-name="レイヤー 1" xmlns="http://www.w3.org/2000/svg" width="500" height="100" viewBox="0 0 500 100">
  <rect x="100.276" y="-46.572" width="27.297" height="151.54" rx="7.829" ry="7.829" transform="translate(143.122 -84.726) rotate(90)" fill="#fff" stroke="#1b393a" stroke-miterlimit="10" stroke-width="5"/>
  <rect x="100.276" y="-8.327" width="27.297" height="151.54" rx="7.829" ry="7.829" transform="translate(181.367 -46.481) rotate(90)" fill="#fff" stroke="#1b393a" stroke-miterlimit="10" stroke-width="5"/>
  <g>
    <path d="m229.456,84.708h-2.114c-12.96,0-17.64-4.005-17.64-16.334v-5.084c0-11.925,4.229-16.604,17.459-16.604h2.07c12.015,0,17.009,4.86,17.009,13.679v1.8h-12.914v-.495c0-1.89-1.26-2.835-4.095-2.835h-1.44c-3.555,0-4.635,1.53-4.635,4.455v5.084c0,3.24,1.936,4.275,4.815,4.275h1.484c3.105,0,4.095-1.485,4.095-3.195v-.99h12.78v1.89c0,10.035-4.95,14.354-16.875,14.354Z" fill="#1b393a" stroke-width="0"/>
    <path d="m272.296,84.348h-10.125c-8.279,0-11.879-3.87-11.879-11.07v-5.58c0-7.065,3.689-10.979,11.879-10.979h10.125c8.415,0,11.654,4.365,11.654,10.844v5.94c0,6.525-3.239,10.845-11.654,10.845Zm-.495-14.399c0-.855-.495-1.71-1.8-1.71h-5.67c-1.395,0-1.845.9-1.845,1.71v1.17c0,1.035.315,1.755,1.845,1.755h5.67c1.485,0,1.8-.99,1.8-1.755v-1.17Z" fill="#1b393a" stroke-width="0"/>
    <path d="m310.995,84.167h-14.579c-5.939,0-9.314-2.52-9.314-9.584v-17.594h12.914v13.409c0,1.08.495,1.8,1.485,1.8h4.409c.945,0,1.485-.405,1.485-1.8v-13.409h12.959v17.594c0,6.165-3.465,9.584-9.359,9.584Z" fill="#1b393a" stroke-width="0"/>
    <path d="m340.335,68.913c-2.79,0-4.095,1.845-4.095,3.645v11.564h-12.914v-11.834c0-10.8,6.479-15.345,14.129-15.345h14.265v11.97h-11.385Z" fill="#1b393a" stroke-width="0"/>
    <path d="m378,84.078h-23.084v-9.315h18.314c1.034,0,1.215-.225,1.215-.675v-.135c0-.495-.315-.765-1.215-.765h-9.405c-6.569,0-9.494-2.43-9.494-7.83v-.54c0-6.075,3.824-7.965,9.494-7.965h23.399v8.145h-17.864c-.945,0-1.305.27-1.305.765v.09c0,.45.359.72,1.305.72h8.64c6.705,0,10.215,1.98,10.215,7.649v.63c0,5.445-2.386,9.225-10.215,9.225Z" fill="#1b393a" stroke-width="0"/>
    <path d="m416.609,73.458h-13.77c.09.9.495,1.575,1.935,1.575h19.439v9.09h-23.265c-6.93,0-9.81-3.105-9.81-10.439v-8.55c0-4.14,2.61-8.37,9.045-8.37h15.93c5.895,0,8.819,3.15,8.819,8.055v1.44c0,4.5-1.89,7.2-8.324,7.2Zm-3.78-7.785c0-.54-.405-.99-1.17-.99h-6.93c-1.17,0-1.935.675-1.935,1.755v.405h8.864c.675,0,1.17-.27,1.17-.945v-.225Z" fill="#1b393a" stroke-width="0"/>
    <path d="m451.574,84.078h-23.084v-9.315h18.314c1.034,0,1.215-.225,1.215-.675v-.135c0-.495-.315-.765-1.215-.765h-9.405c-6.569,0-9.494-2.43-9.494-7.83v-.54c0-6.075,3.824-7.965,9.494-7.965h23.399v8.145h-17.864c-.945,0-1.305.27-1.305.765v.09c0,.45.359.72,1.305.72h8.64c6.705,0,10.215,1.98,10.215,7.649v.63c0,5.445-2.386,9.225-10.215,9.225Z" fill="#1b393a" stroke-width="0"/>
  </g>
  <line x1="52.69" y1="29.198" x2="111.695" y2="29.198" fill="#fff" stroke="#1b393a" stroke-linecap="round" stroke-miterlimit="10" stroke-width="5"/>
  <line x1="123.635" y1="29.198" x2="147.203" y2="29.198" fill="#fff" stroke="#1b393a" stroke-linecap="round" stroke-miterlimit="10" stroke-width="5"/>
  <line x1="155.284" y1="29.198" x2="178.852" y2="29.198" fill="#fff" stroke="#1b393a" stroke-linecap="round" stroke-miterlimit="10" stroke-width="5"/>
  <line x1="52.69" y1="67.443" x2="111.695" y2="67.443" fill="#fff" stroke="#1b393a" stroke-linecap="round" stroke-miterlimit="10" stroke-width="5"/>
  <line x1="123.635" y1="67.443" x2="147.203" y2="67.443" fill="#fff" stroke="#1b393a" stroke-linecap="round" stroke-miterlimit="10" stroke-width="5"/>
  <line x1="155.284" y1="67.443" x2="178.852" y2="67.443" fill="#fff" stroke="#1b393a" stroke-linecap="round" stroke-miterlimit="10" stroke-width="5"/>
</svg>