<?xml version="1.0" encoding="UTF-8"?>
<svg id="_レイヤー_2" data-name="レイヤー 2" xmlns="http://www.w3.org/2000/svg" width="218.945" height="56.259" viewBox="0 0 218.945 56.259">
  <g id="layer1">
    <g>
      <g>
        <path d="m74.696,21.257l.25.25v.75c1.6-1,3.75-1.751,6-1.751,6.9,0,12.001,5.601,12.001,12.501s-5.101,12.501-12.001,12.501c-2.25,0-4.4-.75-6-1.75v12.251l-.25.25h-6.5l-.25-.25V21.507l.25-.25h6.5Zm.25,14.5c1.5,2.251,3.5,3.001,5.5,3.001,3.05,0,5.5-2.601,5.5-5.751s-2.45-5.75-5.5-5.75c-2,0-4,1-5.5,3v5.5Z" fill="#1b393a"/>
        <path d="m121.947,33.007c0,7.001-5.5,12.501-12.5,12.501s-12.501-5.5-12.501-12.501,5.5-12.501,12.501-12.501,12.5,5.501,12.5,12.501Zm-18.001,0c0,3.25,2.25,5.751,5.5,5.751s5.5-2.501,5.5-5.751-2.25-5.75-5.5-5.75-5.5,2.5-5.5,5.75Z" fill="#1b393a"/>
        <path d="m134.695,21.257l.25.25v.75c1.75-1,4-1.751,6.25-1.751,1.5,0,3,.25,4.5,1.001l.25,7-.25.25c-1.5-1.25-4-1.5-5.25-1.5-2,0-4.1.95-5.5,2.5v14.751l-.25.25h-6.5l-.25-.25v-23.001l.25-.25h6.5Z" fill="#1b393a"/>
        <path d="m162.445,15.256l.25.3v5.701h9l.25.25v6.5l-.25.25h-9v5.5c0,4.001,1.75,5.001,3.75,5.001,1.4,0,3.3-.351,5.25-1.75l.25.25v6.75c-1.35.8-3.9,1.5-5.5,1.5-7.5,0-10.75-4.5-10.75-11.001v-6.25h-4l-.25-.25v-6.5l.25-.25h4v-5.751l.25-.25h6.5Z" fill="#1b393a"/>
        <path d="m180.445,22.007c1.5-.75,3.5-1.501,6.25-1.501,5.5,0,11.251,3.251,11.251,10.001v14.001l-.25.25h-6.5l-.25-.25v-.75c-2,1.25-3.7,1.75-5.75,1.75-3.75,0-8.25-2-8.25-7.25,0-6.001,6.25-8.501,14.001-8.751,0-1.25-1.75-3-4.5-3s-5.5,1-8.5,3l-.25-.25,2.75-7.25Zm10.5,12.25c-5.25.25-7,1.5-7,3.251,0,1.25,1.25,2,2.25,2,1.75,0,3-.5,4.75-1.5v-3.751Z" fill="#1b393a"/>
        <path d="m210.694,9.756l.25.25v25.251c0,2.251,1.25,3.501,3,3.501s3.25-.5,4.75-2l.25.25v7c-1.25.75-3.5,1.5-5.25,1.5-6.5,0-9.751-4-9.751-9.751V10.006l.25-.25h6.5Z" fill="#1b393a"/>
      </g>
      <rect x="46.233" y="29.567" width="14.11" height="6.604" fill="#1b393a"/>
      <path d="m15.723,0h-6.623v9.1h6.623c7.22,0,12.54,4.04,13.93,10.28.04-.06.09-.12.13-.18,1.67-2.35,3.93-5.52,7.97-5.79C34.153,5.51,25.993,0,15.723,0Z" fill="#f79526"/>
      <path d="m39.773,22.75c0,12.55-10.07,22.76-24.05,22.76h-6.623v-9.1h6.623c7.61,0,13.11-4.49,14.13-11.32,3.37-2.29,4.8-8.47,9.3-7.63.41,1.7.62,3.47.62,5.29Z" fill="#2fb9ff"/>
      <rect width="9.1" height="45.51" fill="#1b393a"/>
    </g>
  </g>
</svg>