<?xml version="1.0" encoding="UTF-8"?>
<svg id="_レイヤー_1" data-name="レイヤー 1" xmlns="http://www.w3.org/2000/svg" width="500" height="250" viewBox="0 0 500 250">
  <g>
    <rect x="38.154" y="20.981" width="58.813" height="149.538" rx="14.769" ry="14.769" fill="#fff" stroke="#1b393a" stroke-miterlimit="10" stroke-width="10"/>
    <rect x="136.725" y="20.981" width="58.813" height="149.538" rx="14.769" ry="14.769" transform="translate(-25.616 94.868) rotate(-29.693)" fill="#2fb9ff" stroke="#1b393a" stroke-miterlimit="10" stroke-width="10"/>
    <rect x="235.297" y="20.981" width="58.813" height="149.538" rx="14.769" ry="14.769" fill="#fff" stroke="#1b393a" stroke-miterlimit="10" stroke-width="10"/>
    <rect x="319.165" y="20.981" width="58.813" height="149.538" rx="14.769" ry="14.769" fill="#fff" stroke="#1b393a" stroke-miterlimit="10" stroke-width="10"/>
    <rect x="403.033" y="20.981" width="58.813" height="149.538" rx="14.769" ry="14.769" fill="#fff" stroke="#1b393a" stroke-miterlimit="10" stroke-width="10"/>
  </g>
  <g>
    <path d="m104.29,234.723h-31.559v-15.179h27.898c.9,0,1.2-.36,1.2-1.141v-.18c0-.84-.42-1.14-1.2-1.14h-11.939c-12.119,0-16.919-4.98-16.919-14.399v-1.74c0-10.92,6.3-15.119,17.039-15.119h28.379v15.539h-25.259c-.96,0-1.38.48-1.38,1.14v.24c0,.72.3,1.32,1.38,1.32h13.319c9.96,0,15.18,5.399,15.18,12.6v3.119c0,7.98-4.44,14.939-16.14,14.939Z" fill="#1b393a" stroke-width="0"/>
    <path d="m163.93,224.823v9.96h-18.239v-10.02c-11.279-1.44-14.759-7.8-14.759-18.779v-20.159h16.979v18.959c0,2.939,1.561,4.08,4.08,4.08h6.06c2.82,0,4.32-1.26,4.32-4.08v-18.959h17.039v20.159c0,10.439-3.66,17.339-15.479,18.839Z" fill="#1b393a" stroke-width="0"/>
    <path d="m222.31,234.723h-31.559v-15.179h27.898c.9,0,1.2-.36,1.2-1.141v-.18c0-.84-.42-1.14-1.2-1.14h-11.939c-12.119,0-16.919-4.98-16.919-14.399v-1.74c0-10.92,6.3-15.119,17.039-15.119h28.379v15.539h-25.259c-.96,0-1.38.48-1.38,1.14v.24c0,.72.3,1.32,1.38,1.32h13.319c9.96,0,15.18,5.399,15.18,12.6v3.119c0,7.98-4.44,14.939-16.14,14.939Z" fill="#1b393a" stroke-width="0"/>
    <path d="m282.669,201.784v32.999h-18.299v-32.999h-15.3v-15.959h48.059v15.959h-14.46Z" fill="#1b393a" stroke-width="0"/>
    <path d="m326.89,234.783c-14.279,0-18.42-7.56-18.42-18.6v-9.3c0-12.419,2.641-21.059,18.6-21.059h28.199v15.479h-25.02c-2.279,0-3.42.779-3.779,3.3h26.639v11.52h-26.699c0,2.22.48,3.3,3.84,3.3h25.02v15.359h-28.379Z" fill="#1b393a" stroke-width="0"/>
    <path d="m404.888,234.783v-28.559c0-3.601-.42-4.92-3.779-5.04v33.599h-12.78v-33.599c-3.06.24-3.72,1.859-3.72,5.04v28.559h-16.559v-30.119c0-14.279,6.06-19.139,20.519-19.139h13.02c14.64,0,19.979,4.199,19.979,19.139v30.119h-16.68Z" fill="#1b393a" stroke-width="0"/>
  </g>
</svg>