<?xml version="1.0" encoding="UTF-8"?>
<svg id="_レイヤー_1" data-name="レイヤー 1" xmlns="http://www.w3.org/2000/svg" width="500" height="250" viewBox="0 0 500 250">
  <rect x="38.154" y="20.981" width="70.183" height="149.538" rx="14.769" ry="14.769" fill="#2fb9ff" stroke="#1b393a" stroke-miterlimit="10" stroke-width="10"/>
  <rect x="126.531" y="20.981" width="70.183" height="149.538" rx="14.769" ry="14.769" fill="#2fb9ff" stroke="#1b393a" stroke-miterlimit="10" stroke-width="10"/>
  <rect x="214.909" y="20.981" width="70.183" height="149.538" rx="14.769" ry="14.769" fill="#2fb9ff" stroke="#1b393a" stroke-miterlimit="10" stroke-width="10"/>
  <rect x="303.286" y="20.981" width="70.183" height="149.538" rx="14.769" ry="14.769" fill="#2fb9ff" stroke="#1b393a" stroke-miterlimit="10" stroke-width="10"/>
  <rect x="391.663" y="20.981" width="70.183" height="149.538" rx="14.769" ry="14.769" fill="#2fb9ff" stroke="#1b393a" stroke-miterlimit="10" stroke-width="10"/>
  <g>
    <path d="m63.936,233.723v-6.938c0-1.922-.844-2.766-2.812-2.766h-5.391v9.703h-14.297v-38.25h23.719c8.109,0,12.938,3,12.938,13.547v2.25c0,3.047-.891,5.438-2.531,7.219,1.922,1.453,2.625,3.75,2.625,7.031v8.203h-14.25Zm.234-23.156c0-1.828-.75-2.484-2.812-2.484h-5.625v5.062h5.625c2.109,0,2.812-.984,2.812-2.156v-.422Z" fill="#1b393a" stroke-width="0"/>
    <path d="m110.102,222.661h-14.344c.094.938.516,1.641,2.016,1.641h20.25v9.469h-24.234c-7.219,0-10.219-3.234-10.219-10.875v-8.906c0-4.312,2.719-8.719,9.422-8.719h16.594c6.141,0,9.188,3.281,9.188,8.391v1.5c0,4.688-1.969,7.5-8.672,7.5Zm-3.938-8.109c0-.562-.422-1.031-1.219-1.031h-7.219c-1.219,0-2.016.703-2.016,1.828v.422h9.234c.703,0,1.219-.281,1.219-.984v-.234Z" fill="#1b393a" stroke-width="0"/>
    <path d="m155.939,211.176v1.172c0,4.266-.516,5.953-6.656,5.953h-10.594v2.062h10.828c6.656,0,8.438,2.906,8.438,6.422v1.312c0,4.781-1.969,6.609-8.438,6.609h-18.469c-7.078,0-8.906-1.266-8.906-6.609v-1.312c0-3.281.656-5.391,4.875-6.141v-2.531c-3.141-.562-3.656-2.25-3.656-5.766v-1.031c0-3.656.609-5.812,6.703-5.812h16.406v-1.875l13.641-2.672v9.469l-4.172.75Zm-13.641.703c0-.609-.422-1.031-1.547-1.031h-2.203c-1.125,0-1.5.422-1.5,1.031v.047c0,.703.281,1.078,1.5,1.078h2.203c1.172,0,1.547-.328,1.547-1.078v-.047Zm1.172,15.422c0-.516-.281-.891-1.5-.891h-3.75c-1.031,0-1.172.469-1.172.891v.281c0,.75.094,1.078,1.172,1.078h3.75c1.312,0,1.5-.328,1.5-1.078v-.281Z" fill="#1b393a" stroke-width="0"/>
    <path d="m164.652,206.067v-10.594h13.453v10.594h-13.453Zm0,27.703v-25.547h13.453v25.547h-13.453Z" fill="#1b393a" stroke-width="0"/>
    <path d="m207.024,233.723h-24.047v-9.703h19.078c1.078,0,1.266-.234,1.266-.703v-.141c0-.516-.328-.797-1.266-.797h-9.797c-6.844,0-9.891-2.531-9.891-8.156v-.562c0-6.328,3.984-8.297,9.891-8.297h24.375v8.484h-18.609c-.984,0-1.359.281-1.359.797v.094c0,.469.375.75,1.359.75h9c6.984,0,10.641,2.062,10.641,7.969v.656c0,5.672-2.484,9.609-10.641,9.609Z" fill="#1b393a" stroke-width="0"/>
    <path d="m238.848,217.786v2.25c0,1.266.188,1.5,1.688,1.5h12.891v12.234h-17.297c-7.781,0-10.547-3.656-10.547-9.234v-6.75h-5.859v-12.328h5.859v-5.344h13.266v5.344h15.234v12.328h-15.234Z" fill="#1b393a" stroke-width="0"/>
    <path d="m274.515,217.926c-2.906,0-4.266,1.922-4.266,3.797v12.047h-13.453v-12.328c0-11.25,6.75-15.984,14.719-15.984h14.859v12.469h-11.859Z" fill="#1b393a" stroke-width="0"/>
    <path d="m316.978,233.77h-17.391c-6.188,0-9.609-3.375-9.609-7.922v-1.969c0-4.5,3.328-7.406,9-7.406h13.875c0-.984-.422-1.5-1.734-1.5h-19.688v-9.609h24.234c8.109,0,10.453,4.031,10.453,11.203v9.75c0,4.5-3.141,7.453-9.141,7.453Zm-4.359-9.516c0-.375-.281-.75-1.031-.75h-7.078c-.891,0-1.125.281-1.125.75v.375c0,.469.234.797,1.125.797h7.078c.797,0,1.031-.234,1.031-.797v-.375Z" fill="#1b393a" stroke-width="0"/>
    <path d="m348.285,217.786v2.25c0,1.266.188,1.5,1.688,1.5h12.891v12.234h-17.297c-7.781,0-10.547-3.656-10.547-9.234v-6.75h-5.859v-12.328h5.859v-5.344h13.266v5.344h15.234v12.328h-15.234Z" fill="#1b393a" stroke-width="0"/>
    <path d="m367.733,206.067v-10.594h13.453v10.594h-13.453Zm0,27.703v-25.547h13.453v25.547h-13.453Z" fill="#1b393a" stroke-width="0"/>
    <path d="m408.98,234.004h-10.547c-8.625,0-12.375-4.031-12.375-11.531v-5.812c0-7.359,3.844-11.438,12.375-11.438h10.547c8.766,0,12.141,4.547,12.141,11.297v6.188c0,6.797-3.375,11.297-12.141,11.297Zm-.516-15c0-.891-.516-1.781-1.875-1.781h-5.906c-1.453,0-1.922.938-1.922,1.781v1.219c0,1.078.328,1.828,1.922,1.828h5.906c1.547,0,1.875-1.031,1.875-1.828v-1.219Z" fill="#1b393a" stroke-width="0"/>
    <path d="m446.382,233.77v-13.453c0-1.781-.891-2.391-2.531-2.391h-3c-1.734,0-2.766.891-2.766,2.391v13.453h-13.641v-18.094c0-6.234,3.516-10.219,9.844-10.219h15.328c6.328,0,10.5,3.984,10.5,10.219v18.094h-13.734Z" fill="#1b393a" stroke-width="0"/>
  </g>
</svg>